<svg xmlns="http://www.w3.org/2000/svg" width="1120" height="560" viewBox="0 0 1120 560" role="img" aria-labelledby="title desc">
<title id="title">FP16 semantic CUDA deployment versus original kernels</title>
<desc id="desc">Measured 720p, 1080p, 1440p and 4K latency on RTX PRO 6000 Blackwell. Both execution orders pass the 1% gate at every size.</desc>
<rect width="1120" height="560" rx="20" fill="#f6f8fc"/>
<style>text{font-family:Segoe UI,Arial,sans-serif;fill:#172a43}.muted{fill:#52647c}</style>
<text x="42" y="48" font-size="26" font-weight="700">FP16 deployment: original vs readable CUDA</text>
<text x="42" y="77" font-size="15" class="muted">Prepared-feature trunk, blocks 1–69 | SM120 | batch 1 | lower latency is better</text>
<rect x="42" y="99" width="16" height="16" fill="#7893b5"/><text x="67" y="113" font-size="14">Original extracted kernels</text>
<rect x="295" y="99" width="16" height="16" fill="#127e89"/><text x="320" y="113" font-size="14">CUDA/C++ reconstruction</text>
<text x="42" y="171" font-size="19" font-weight="600">720p</text>
<text x="42" y="192" font-size="12" class="muted">1280 × 720</text>
<rect x="188" y="155" width="217.21" height="21" rx="4" fill="#7893b5"/>
<text x="415.21" y="171" font-size="14">3.752 ms</text>
<rect x="188" y="182" width="213.86" height="21" rx="4" fill="#127e89"/>
<text x="411.86" y="198" font-size="14">3.694 ms</text>
<text x="1015" y="184" text-anchor="middle" font-size="18" font-weight="600">-1.48%</text>
<text x="42" y="256" font-size="19" font-weight="600">1080p</text>
<text x="42" y="277" font-size="12" class="muted">1920 × 1080</text>
<rect x="188" y="240" width="259.98" height="21" rx="4" fill="#7893b5"/>
<text x="457.98" y="256" font-size="14">4.490 ms</text>
<rect x="188" y="267" width="254.64" height="21" rx="4" fill="#127e89"/>
<text x="452.64" y="283" font-size="14">4.398 ms</text>
<text x="1015" y="269" text-anchor="middle" font-size="18" font-weight="600">-1.98%</text>
<text x="42" y="341" font-size="19" font-weight="600">2K / 1440p</text>
<text x="42" y="362" font-size="12" class="muted">2560 × 1440</text>
<rect x="188" y="325" width="353.51" height="21" rx="4" fill="#7893b5"/>
<text x="551.51" y="341" font-size="14">6.106 ms</text>
<rect x="188" y="352" width="345.74" height="21" rx="4" fill="#127e89"/>
<text x="543.74" y="368" font-size="14">5.972 ms</text>
<text x="1015" y="354" text-anchor="middle" font-size="18" font-weight="600">-2.11%</text>
<text x="42" y="426" font-size="19" font-weight="600">4K</text>
<text x="42" y="447" font-size="12" class="muted">3840 × 2160</text>
<rect x="188" y="410" width="670.00" height="21" rx="4" fill="#7893b5"/>
<text x="868.00" y="426" font-size="14">11.572 ms</text>
<rect x="188" y="437" width="654.63" height="21" rx="4" fill="#127e89"/>
<text x="852.63" y="453" font-size="14">11.307 ms</text>
<text x="1015" y="439" text-anchor="middle" font-size="18" font-weight="600">-2.29%</text>
<text x="42" y="512" font-size="14" class="muted">64 alternating pairs; paired-ratio medians. Both execution orders pass the 1% gate at every size.</text>
<text x="42" y="537" font-size="13" class="muted">Excludes input/output stages and DLL host work. Data: small_gpu_deployment_measurements.json.</text>
</svg>
